<svg xmlns="http://www.w3.org/2000/svg" width="971.991" height="639.896" viewBox="0 0 971.991 639.896"><defs><style>.a{fill:#fff;}.b{fill:#e6e6e6;}.c{fill:#ffb8b8;}.d{fill:#6c63ff;}.e{fill:#2f2e41;}.f{fill:#3f3d56;}.g{fill:#ccc;}</style></defs><g transform="translate(-0.011 0)"><path class="a" d="M748.372,409.458q-1.68,8.835-4.03,17.49c-.17.67-.36,1.33-.55,2H722a7.008,7.008,0,0,0-7,7v62.12c-.66,1.23-1.33,2.45-2,3.67-3.46,6.3-7.06,12.53-10.74,18.68a710.143,710.143,0,0,1-243.69,243.55l5.92-13.36-6.52-.45c-47.25-3.23-94.66-6.81-140.8-17.43-48.27-11.11-95.49-30.38-133.32-62.33s-65.58-77.6-69.43-126.98a144.883,144.883,0,0,1,5.07-50.41c8.87-31.52,28.25-59.88,56.21-76.66,43.92-26.35,101.21-20.98,147.51.94s83.97,58.18,120.76,93.82a466.421,466.421,0,0,0-150.91-157.52c-20.56-13.16-42.38-24.88-59.86-41.93s-30.36-40.93-27.27-65.14c3.51-27.46,26-48.3,48.53-64.37,9-6.42,18.29-12.51,27.87-18.11,27.03-15.84,56.27-27.79,87.15-32.22,41.83-6.01,87.01,3.11,119.08,30.63,36.13,31.01,50.95,81.02,49.54,128.86,22.26-32.36,56.59-57.13,95.36-58.18,40.25-1.08,78.51,24.35,98.67,59.21S755.9,369.908,748.372,409.458Z" transform="translate(-113.998 -130.052)"/><path class="a" d="M493.714,543.853c23.575-2.076,45.352-4.5,68.2-10.966,22.143-6.266,43.451-16.755,59.214-33.882,16.955-18.422,26.107-42.345,32.564-66.161,3.6-13.278,6.559-26.742,9.35-40.21q4.543-21.92,8.073-44.033,7.027-44.018,10.033-88.554.363-5.406.666-10.816c.125-2.225-3.335-2.218-3.46,0q-2.47,43.9-8.885,87.457c-4.221,28.53-9.621,56.936-16.472,84.955-5.8,23.736-13.32,47.843-28.206,67.6-13.959,18.529-34.122,30.638-55.892,37.877-22.153,7.367-45.51,10.308-68.659,12.5-2.84.268-3.681.524-6.522.774-2.2.194-2.221,3.656,0,3.46Z" transform="translate(-113.998 -130.052)"/><path class="a" d="M121.489,495.561a375.01,375.01,0,0,1,87.7,15.454,379.01,379.01,0,0,1,81.676,35.552,369.763,369.763,0,0,1,68.78,51.786,378.869,378.869,0,0,1,53.727,64.062,375.1,375.1,0,0,1,38.447,74.532q1.827,4.811,3.52,9.67c.729,2.089,4.073,1.19,3.336-.92a378.645,378.645,0,0,0-36.729-76.387,383.571,383.571,0,0,0-52.7-66.391,373.963,373.963,0,0,0-67.28-53.692,381.916,381.916,0,0,0-169.574-56.376q-5.446-.456-10.9-.751c-2.225-.122-2.218,3.339,0,3.46Z" transform="translate(-113.998 -130.052)"/><path class="a" d="M283.267,168.094a203.8,203.8,0,0,1,53.5,26.144A251.247,251.247,0,0,1,382.44,234.8a336.249,336.249,0,0,1,37.82,52.121,444.663,444.663,0,0,1,30.07,61.135,553.177,553.177,0,0,1,21.9,66.5,621.488,621.488,0,0,1,14,69.475,620.231,620.231,0,0,1,6.027,69.869,553.487,553.487,0,0,1-1.979,67.024,426.915,426.915,0,0,1-10.063,61.706,291.561,291.561,0,0,1-18.155,53.357q-2.7,5.841-5.722,11.521c-1.047,1.965,1.939,3.715,2.988,1.746a266.705,266.705,0,0,0,20.434-51.429,398.286,398.286,0,0,0,12.186-60.5,526.379,526.379,0,0,0,4.026-66.89,613.726,613.726,0,0,0-4.188-70.288,633.121,633.121,0,0,0-12.19-70.232,573.108,573.108,0,0,0-20.381-68.4,475.92,475.92,0,0,0-28.342-62.945,364.9,364.9,0,0,0-36.341-54.851,270.583,270.583,0,0,0-44.4-44,214.686,214.686,0,0,0-52.065-30.032q-6.846-2.725-13.882-4.929c-2.129-.67-3.04,2.669-.92,3.336Z" transform="translate(-113.998 -130.052)"/><ellipse class="b" cx="247.5" cy="10" rx="247.5" ry="10" transform="translate(127.004 619.896)"/><path class="c" d="M707.171,446.737a10.524,10.524,0,0,0-.239,1.64l-42.958,24.782-10.441-6.011L642.4,481.721l22.337,15.921,49.008-38.663a10.5,10.5,0,1,0-6.576-12.241Z" transform="translate(-113.998 -130.052)"/><path class="d" d="M609.338,461.942l33.824,24.107,15.128-18.967L625.41,440.7a13.324,13.324,0,0,0-19.189,2.659h0a13.324,13.324,0,0,0,3.117,18.584Z" transform="translate(-113.998 -130.052)"/><path class="c" d="M425.519,606.957l11.86,3.107,17.63-44.264-17.5-4.587Z"/><path class="e" d="M535.348,737.595h38.531v14.887H550.235a14.887,14.887,0,0,1-14.887-14.887h0Z" transform="matrix(-0.967, -0.253, 0.253, -0.967, 788.271, 1476.272)"/><path class="c" d="M530.942,615.4l12.069-2.156-2.572-47.577-17.812,3.182Z"/><path class="e" d="M642.747,738.963h38.531V753.85H657.634a14.887,14.887,0,0,1-14.887-14.887h0Z" transform="translate(1330.963 1234.719) rotate(169.872)"/><path class="e" d="M621.175,395.561c2.974.724,5.393,3.754,6.846,7.265a50.678,50.678,0,0,1,2.7,11.414c1.142,7.257,2.238,15.113-.123,21.834-2.768,7.877-10.142,12-16.539,10.064s-11.484-9.217-13.222-17.594a42.609,42.609,0,0,1,2.924-25.084c1.817-4.137,4.322-7.954,7.65-9.82a7.55,7.55,0,0,1,10.068,2.1" transform="translate(-113.998 -130.052)"/><path class="e" d="M638,526.948l22.977,205.794L642,739.948l-35-138L558.274,728.126,537.5,729.28S566,532.948,587.124,528.486Z" transform="translate(-113.998 -130.052)"/><circle class="c" cx="24.561" cy="24.561" r="24.561" transform="translate(480.144 242.65)"/><path class="d" d="M629.244,432.128,602.7,428.666s-17.31,20.772-16.156,56.546-2.885,46.737-2.885,46.737l55.341,1C631,521.948,664.464,458.771,629.244,432.128Z" transform="translate(-113.998 -130.052)"/><path class="c" d="M643.5,537.948a10.522,10.522,0,0,0-1.651.142L607.9,501.944l3.462-11.54-16.733-7.5-10.387,25.387L633.09,547.15a10.5,10.5,0,1,0,10.412-9.2Z" transform="translate(-113.998 -130.052)"/><path class="d" d="M606.312,446.191l-15.727,38.443,21.926,10.386,18.158-38.045a13.324,13.324,0,0,0-6.98-18.071h0a13.324,13.324,0,0,0-17.377,7.287Z" transform="translate(-113.998 -130.052)"/><path class="e" d="M612.278,419.592c3.848-2.22,4.259-7.576,3.736-11.988s-1.4-9.331,1.2-12.938c3.1-4.306,9.314-4.391,14.615-4.532s11.756-1.693,13.129-6.814c.908-3.384-1.034-7.016-3.82-9.14s-6.272-3.064-9.66-3.956c-7.579-2-15.406-4.01-23.166-2.913a29.535,29.535,0,0,0-25.163,32.98c1.256,9.851,3.078,14.153,1.882,18.5C582.8,426.878,573.2,432.075,573,440.464c-.15,6.562,5.647,11.624,11.3,14.956,4.486,2.643,9.327,4.885,14.5,5.5s10.735-.566,14.586-4.07c4.967-4.519,6.2-12.069,4.771-18.631s-5.078-12.39-8.691-18.049" transform="translate(-113.998 -130.052)"/><path class="f" d="M1077,426.948H722a9.014,9.014,0,0,0-9,9v228a9.014,9.014,0,0,0,9,9h355a9.013,9.013,0,0,0,9-9v-228A9.013,9.013,0,0,0,1077,426.948Zm7,237a7.008,7.008,0,0,1-7,7H722a7.008,7.008,0,0,1-7-7v-228a7.008,7.008,0,0,1,7-7h355a7.008,7.008,0,0,1,7,7Z" transform="translate(-113.998 -130.052)"/><path class="d" d="M797.777,540.443h-56a8.51,8.51,0,0,1-8.5-8.5v-56a8.51,8.51,0,0,1,8.5-8.5h56a8.51,8.51,0,0,1,8.5,8.5v56A8.51,8.51,0,0,1,797.777,540.443Z" transform="translate(-113.998 -130.052)"/><path class="g" d="M1058.51,599.953h-318a6.5,6.5,0,1,1,0-13h318a6.5,6.5,0,0,1,0,13Z" transform="translate(-113.998 -130.052)"/><path class="g" d="M1058.73,568.453h-318a6.5,6.5,0,0,1,0-13h318a6.5,6.5,0,1,1,0,13Z" transform="translate(-113.998 -130.052)"/><path class="g" d="M901.727,525.443h-47a6.5,6.5,0,0,1,0-13h47a6.5,6.5,0,1,1,0,13Z" transform="translate(-113.998 -130.052)"/><path class="g" d="M1058.73,493.453h-204a6.5,6.5,0,0,1,0-13h204a6.5,6.5,0,1,1,0,13Z" transform="translate(-113.998 -130.052)"/><path class="g" d="M893.727,631.953H740.513a6.5,6.5,0,0,1,0-13H893.727a6.5,6.5,0,0,1,0,13Z" transform="translate(-113.998 -130.052)"/></g></svg>